# xmcd
#
# Track frame offsets:
#	150
#	15518
#	30824
#	45659
#	59326
#	75270
#	91097
#	107243
#	121049
#	136891
#	153374
#	170167
#	186296
#	201742
#	218737
#	231881
#	245970
#	261262
#	277132
#	294221
#
# Disc length: 4150
#
# Revision: 3
# Processed by: cddbd v1.5.1PL0 Copyright (c) Steve Scherf et al.
# Submitted via: CDex 1.50
# Normalized: r1:TDELIM( - ),TSWAP
#
DISCID=19103414
DTITLE=DIE SUPER HITPARADE - Die Super Hitparade CD1
DYEAR=1900
DGENRE=Schlager
TTITLE0=KASTELRUTHER SPATZEN - Und Ewig Wird Der Himmel Brennen
TTITLE1=BRUNNER& BRUNNER - Sterne In Deinen Augen
TTITLE2=ANDREA JÜRGENS - Wenn Der Himmel Es Will
TTITLE3=MARCEL SCHWEIZER - Frag Dein Herz
TTITLE4=KRISTINA BACH - Rio De Janeiro
TTITLE5=FRANZ BAUER - Torero
TTITLE6=DIE FLIPPERS - Abschiedswalzer
TTITLE7=ANDY BORG - Ich Will Nur Dich
TTITLE8=ANDRE STADE - Baby Blue
TTITLE9=LEONARD - LassI ch Dich Heut Geh'n
TTITLE10=DIE PALDAUER - Mit Tränen In Den Augen
TTITLE11=KASTELRUTHER SPATZEN - Die Trompeten Von Kastelruth
TTITLE12=G.G.ANDERSON - Ich Bin Verrückt Nach Dir(Amore Mio)
TTITLE13=ANDREAS MARTIN - Sempre Amore Con Te
TTITLE14=GABY BAGINSKY - Du Bist Der Mann
TTITLE15=IBO - Hello
TTITLE16=FERNANDO EXPRESS - Casanova
TTITLE17=KLOSTERTALER - Die Längste Nacht Der Welt(Party Mix)
TTITLE18=OLAF HENNING - Das Spiel Ist Aus
TTITLE19=DJ ÖTZI - Anton Aus Tirol
EXTD=
EXTT0=
EXTT1=
EXTT2=
EXTT3=
EXTT4=
EXTT5=
EXTT6=
EXTT7=
EXTT8=
EXTT9=
EXTT10=
EXTT11=
EXTT12=
EXTT13=
EXTT14=
EXTT15=
EXTT16=
EXTT17=
EXTT18=
EXTT19=
PLAYORDER=
